<?xml version="1.0" encoding="UTF-8"?>
<svg id="Camada_1" xmlns="http://www.w3.org/2000/svg" version="1.1" viewBox="0 0 32 32">
  <!-- Generator: Adobe Illustrator 29.4.0, SVG Export Plug-In . SVG Version: 2.1.0 Build 152)  -->
  <defs>
    <style>
      .st0 {
        fill: #f03;
      }
    </style>
  </defs>
  <g id="YOUTUBE">
    <path class="st0" d="M29.98,9.09c-.34-1.25-1.3-2.22-2.58-2.55-2.27-.61-11.42-.61-11.42-.61,0,0-9.13,0-11.39.61-1.26.33-2.24,1.3-2.6,2.55-.6,2.22-.6,6.89-.6,6.89,0,0,0,4.7.6,6.94.36,1.22,1.34,2.21,2.6,2.55,2.26.6,11.39.6,11.39.6,0,0,9.15,0,11.42-.6,1.28-.34,2.24-1.33,2.58-2.55.62-2.24.62-6.94.62-6.94,0,0,0-4.67-.62-6.89ZM12.98,20.28v-8.56l7.55,4.28-7.55,4.28Z"/>
  </g>
</svg>